<?xml version="1.0" standalone="no"?>
<!DOCTYPE svg PUBLIC "-//W3C//DTD SVG 20010904//EN"
 "http://www.w3.org/TR/2001/REC-SVG-20010904/DTD/svg10.dtd">
<svg version="1.0" xmlns="http://www.w3.org/2000/svg"
 width="2048.000000pt" height="2048.000000pt" viewBox="0 0 2048.000000 2048.000000"
 preserveAspectRatio="xMidYMid meet">

<g transform="translate(0.000000,2048.000000) scale(0.100000,-0.100000)"
fill="#000000" stroke="none">
<path d="M0 10502 c0 -9905 0 -9979 20 -10056 29 -113 73 -190 160 -276 82
-83 141 -116 261 -150 l74 -20 9730 0 c8814 0 9736 2 9790 16 115 31 182 69
265 151 86 87 127 158 160 275 l20 73 0 9982 0 9983 -10240 0 -10240 0 0
-9978z m12715 6238 c384 -28 664 -84 1030 -205 776 -255 1495 -762 2005 -1410
100 -127 216 -289 265 -370 27 -44 54 -87 61 -95 6 -8 53 -94 102 -190 146
-283 259 -580 336 -885 37 -148 74 -341 99 -510 l21 -150 4 -3875 c2 -2734 0
-3909 -8 -3990 -33 -352 -164 -634 -410 -881 -313 -315 -737 -467 -1175 -420
-346 37 -652 187 -893 435 -194 200 -311 427 -369 711 -17 86 -18 283 -23
3985 l-5 3895 -24 105 c-41 185 -123 370 -229 520 -191 269 -508 475 -837 542
-99 21 -121 21 -2355 23 -1240 1 -2304 -2 -2365 -7 -128 -9 -229 -33 -358 -84
-437 -176 -735 -529 -840 -994 l-21 -95 -6 -3920 -6 -3920 -22 -90 c-46 -185
-104 -328 -187 -457 -288 -447 -806 -698 -1340 -650 -373 34 -693 190 -945
460 -179 192 -282 396 -348 687 l-27 120 -1 3865 c-1 2126 2 3915 7 3975 20
260 73 578 131 780 147 518 374 992 640 1340 5 6 32 42 61 81 121 165 351 413
572 615 127 116 395 313 602 442 572 358 1246 576 1898 613 61 4 112 8 114 10
11 10 4717 3 4846 -6z m-2328 -9260 c163 -21 260 -52 413 -130 360 -186 617
-544 707 -987 16 -79 18 -154 18 -763 0 -665 0 -677 -23 -777 -86 -392 -279
-686 -582 -888 -215 -144 -426 -208 -680 -208 -544 0 -1033 369 -1210 911 -74
229 -73 218 -77 916 -4 536 -2 646 12 740 69 481 335 865 744 1070 205 104
448 145 678 116z m9013 -5956 c33 -89 94 -178 167 -244 64 -57 107 -82 203
-120 37 -15 65 -32 65 -40 0 -9 -28 -25 -70 -40 -89 -33 -177 -93 -244 -166
-57 -62 -83 -105 -121 -204 -15 -37 -32 -65 -40 -65 -9 0 -25 28 -40 70 -33
89 -93 177 -166 244 -62 57 -105 83 -204 121 -37 15 -65 32 -65 40 0 9 28 25
70 40 169 63 300 194 365 367 12 31 24 61 26 65 13 20 30 -2 54 -68z"/>
</g>
</svg>
